<?xml version="1.0" encoding="UTF-8"?>
<svg version="1.1" xmlns="http://www.w3.org/2000/svg" width="512" height="512">
<path d="M0 0 C0.99515625 0.79148438 1.9903125 1.58296875 3.015625 2.3984375 C17.93258933 14.46237889 31.89576645 28.32788856 43 44 C43.46921875 44.65194336 43.9384375 45.30388672 44.421875 45.97558594 C69.03844797 80.45498321 83.50837339 120.18245123 83.3125 162.6875 C83.31034485 163.52860321 83.3081897 164.36970642 83.30596924 165.23629761 C83.25599266 177.38219422 82.96732974 189.16267381 80 201 C79.70198486 202.23943359 79.70198486 202.23943359 79.39794922 203.50390625 C76.2529561 216.30061231 71.80762431 228.18631955 66 240 C65.68836914 240.64630371 65.37673828 241.29260742 65.05566406 241.95849609 C53.0572255 266.62195314 34.45315691 288.10775047 13 305 C12.44666992 305.44085938 11.89333984 305.88171875 11.32324219 306.3359375 C9.59622285 307.71056335 7.86196022 309.07546418 6.125 310.4375 C5.5897168 310.86281006 5.05443359 311.28812012 4.50292969 311.72631836 C1.46781907 314.07876695 -1.35806914 315.77034438 -5 317 C0.18875457 343.04045771 11.66945715 360.40614257 30.5625 378.6875 C32.64584646 380.71552148 34.72608538 382.74651481 36.80076599 384.78340149 C38.08065893 386.03883666 39.36586145 387.28888677 40.65687561 388.53288269 C42.14226897 389.98433123 43.5767387 391.48757693 45 393 C45 393.66 45 394.32 45 395 C38.74187336 395.05004653 32.48386737 395.08602039 26.22558594 395.10986328 C24.10382046 395.1198201 21.98206833 395.13339042 19.86035156 395.15087891 C-16.95738125 395.44639423 -50.47467538 387.23478564 -79 363 C-79.68852051 362.26813477 -80.37704102 361.53626953 -81.08642578 360.78222656 C-85.11990359 356.46115596 -85.11990359 356.46115596 -90.55712891 354.76757812 C-93.50855931 355.20941222 -96.25937994 355.91675267 -99.125 356.75 C-101.33215067 357.29148051 -103.54195091 357.82224369 -105.75390625 358.34375 C-107.50598389 358.76527344 -107.50598389 358.76527344 -109.29345703 359.1953125 C-115.82623262 360.61357283 -122.43271099 361.43787508 -129.0625 362.25 C-129.73435333 362.33314453 -130.40620667 362.41628906 -131.09841919 362.50195312 C-140.72318052 363.68440842 -150.29694731 364.82662444 -160 365 C-161.03850098 365.02046387 -162.07700195 365.04092773 -163.14697266 365.06201172 C-239.46740289 366.32861055 -314.44587839 347.74140296 -371 294.1875 C-404.00814519 261.91286915 -428.39855444 214.35271791 -429.21531677 167.60795593 C-429.22668419 166.47170525 -429.22668419 166.47170525 -429.23828125 165.3125 C-429.25297203 164.0948571 -429.25297203 164.0948571 -429.26795959 162.85261536 C-429.43980521 144.90913112 -429.31941737 127.53060832 -425 110 C-424.77505859 109.08250977 -424.55011719 108.16501953 -424.31835938 107.21972656 C-415.61005522 72.75835213 -398.54702068 42.59694298 -374 17 C-373.49597656 16.46874512 -372.99195313 15.93749023 -372.47265625 15.39013672 C-346.42045983 -11.95330011 -312.67908455 -30.39479922 -277 -42 C-276.20255371 -42.26554687 -275.40510742 -42.53109375 -274.58349609 -42.8046875 C-185.39579074 -72.32083164 -73.8447408 -60.26189988 0 0 Z " fill="#C3C3C3" transform="translate(429,87)"/>
</svg>
